<svg width="30" height="30" viewBox="0 0 30 30" fill="none" xmlns="http://www.w3.org/2000/svg">
<circle cx="15" cy="15" r="15" fill="#D9D9D9"/>
<path d="M20.4 20.4C19.401 20.4 18.6 21.201 18.6 22.2C18.6 22.6774 18.7896 23.1352 19.1272 23.4728C19.4648 23.8104 19.9226 24 20.4 24C20.8774 24 21.3352 23.8104 21.6728 23.4728C22.0104 23.1352 22.2 22.6774 22.2 22.2C22.2 21.7226 22.0104 21.2648 21.6728 20.9272C21.3352 20.5896 20.8774 20.4 20.4 20.4ZM6 6V7.8H7.8L11.04 14.631L9.816 16.836C9.681 17.088 9.6 17.385 9.6 17.7C9.6 18.1774 9.78964 18.6352 10.1272 18.9728C10.4648 19.3104 10.9226 19.5 11.4 19.5H22.2V17.7H11.778C11.7183 17.7 11.6611 17.6763 11.6189 17.6341C11.5767 17.5919 11.553 17.5347 11.553 17.475C11.553 17.43 11.562 17.394 11.58 17.367L12.39 15.9H19.095C19.77 15.9 20.364 15.522 20.67 14.973L23.892 9.15C23.955 9.006 24 8.853 24 8.7C24 8.46131 23.9052 8.23239 23.7364 8.0636C23.5676 7.89482 23.3387 7.8 23.1 7.8H9.789L8.943 6M11.4 20.4C10.401 20.4 9.6 21.201 9.6 22.2C9.6 22.6774 9.78964 23.1352 10.1272 23.4728C10.4648 23.8104 10.9226 24 11.4 24C11.8774 24 12.3352 23.8104 12.6728 23.4728C13.0104 23.1352 13.2 22.6774 13.2 22.2C13.2 21.7226 13.0104 21.2648 12.6728 20.9272C12.3352 20.5896 11.8774 20.4 11.4 20.4Z" fill="#888888"/>
</svg>
