<svg width="92" height="53" viewBox="0 0 92 53" fill="none" xmlns="http://www.w3.org/2000/svg">
<path d="M9.33557 40.3333C7.85409 40.3333 6.51149 40.037 5.30779 39.4444C4.1226 38.8519 3.17816 38.1296 2.47446 37.2778L3.39112 33.4444C3.90964 34.4815 4.68742 35.4167 5.72446 36.25C6.76149 37.0833 8.00223 37.5 9.44668 37.5C10.7615 37.5 11.8448 37.0833 12.6967 36.25C13.567 35.4167 14.0022 34.3889 14.0022 33.1667C14.0022 32.2778 13.7893 31.5463 13.3633 30.9722C12.9374 30.3981 12.4559 29.9444 11.9189 29.6111C11.3819 29.2778 10.9559 29.037 10.6411 28.8889L7.58557 27.3333C7.10409 27.0741 6.50223 26.713 5.78001 26.25C5.07631 25.787 4.45594 25.1481 3.9189 24.3333C3.38186 23.5185 3.11334 22.463 3.11334 21.1667C3.11334 19.9074 3.40038 18.787 3.97446 17.8056C4.56705 16.8241 5.38186 16.0556 6.4189 15.5C7.47446 14.9444 8.67816 14.6667 10.03 14.6667C11.3633 14.6667 12.5393 14.9074 13.5578 15.3889C14.5763 15.8519 15.3726 16.3333 15.9467 16.8333L15.03 20.6667C14.567 19.8889 13.8819 19.1574 12.9745 18.4722C12.067 17.787 11.0393 17.4444 9.89112 17.4444C8.78001 17.4444 7.89112 17.7778 7.22446 18.4444C6.55779 19.0926 6.22446 19.8981 6.22446 20.8611C6.22446 21.6019 6.39112 22.213 6.72446 22.6944C7.07631 23.1759 7.4652 23.5556 7.89112 23.8333C8.33557 24.1111 8.69668 24.3241 8.97446 24.4722L12.0856 26.0278C12.4559 26.213 12.9189 26.4722 13.4745 26.8056C14.0485 27.1389 14.6133 27.5833 15.1689 28.1389C15.7245 28.6759 16.1874 29.3426 16.5578 30.1389C16.9282 30.9167 17.1133 31.8611 17.1133 32.9722C17.1133 34.3981 16.7708 35.6667 16.0856 36.7778C15.4189 37.8889 14.5022 38.7593 13.3356 39.3889C12.1689 40.0185 10.8356 40.3333 9.33557 40.3333ZM24.9212 40.1667C23.7823 40.1667 22.7406 39.8819 21.7962 39.3125C20.8517 38.7292 20.0948 37.9514 19.5253 36.9792C18.9698 36.0069 18.692 34.9306 18.692 33.75C18.692 32.5694 18.9698 31.4931 19.5253 30.5208C20.0948 29.5486 20.8517 28.7778 21.7962 28.2083C22.7406 27.625 23.7823 27.3333 24.9212 27.3333C25.7823 27.3333 26.5878 27.4931 27.3378 27.8125C28.1017 28.1319 28.7614 28.5764 29.317 29.1458V27.5H31.4003V40H29.317V38.3542C28.7614 38.9097 28.1017 39.3542 27.3378 39.6875C26.5878 40.0069 25.7823 40.1667 24.9212 40.1667ZM25.2128 38.125C26.0045 38.125 26.7198 37.9306 27.3587 37.5417C28.0114 37.1389 28.5253 36.6111 28.9003 35.9583C29.2892 35.2917 29.4837 34.5556 29.4837 33.75C29.4837 32.9444 29.2892 32.2153 28.9003 31.5625C28.5253 30.8958 28.0114 30.3681 27.3587 29.9792C26.7198 29.5764 26.0045 29.375 25.2128 29.375C24.4212 29.375 23.6989 29.5764 23.0462 29.9792C22.4073 30.3681 21.8934 30.8958 21.5045 31.5625C21.1295 32.2153 20.942 32.9444 20.942 33.75C20.942 34.5556 21.1295 35.2917 21.5045 35.9583C21.8934 36.6111 22.4073 37.1389 23.0462 37.5417C23.6989 37.9306 24.4212 38.125 25.2128 38.125ZM40.9665 40.1667C40.1054 40.1667 39.2998 40.0069 38.5498 39.6875C37.7998 39.3542 37.1401 38.9097 36.5706 38.3542V40H34.4873V20H36.7373V28.9792C37.2929 28.4653 37.9317 28.0625 38.654 27.7708C39.3762 27.4792 40.147 27.3333 40.9665 27.3333C42.1192 27.3333 43.1609 27.625 44.0915 28.2083C45.0359 28.7778 45.7859 29.5486 46.3415 30.5208C46.9109 31.4931 47.1956 32.5694 47.1956 33.75C47.1956 34.9306 46.9109 36.0069 46.3415 36.9792C45.7859 37.9514 45.0359 38.7292 44.0915 39.3125C43.1609 39.8819 42.1192 40.1667 40.9665 40.1667ZM40.6748 38.125C41.4665 38.125 42.1817 37.9306 42.8206 37.5417C43.4734 37.1389 43.9873 36.6111 44.3623 35.9583C44.7512 35.2917 44.9456 34.5556 44.9456 33.75C44.9456 32.9444 44.7512 32.2153 44.3623 31.5625C43.9873 30.8958 43.4734 30.3681 42.8206 29.9792C42.1817 29.5764 41.4665 29.375 40.6748 29.375C39.8831 29.375 39.1609 29.5764 38.5081 29.9792C37.8692 30.3681 37.3554 30.8958 36.9665 31.5625C36.5915 32.2153 36.404 32.9444 36.404 33.75C36.404 34.5556 36.5915 35.2917 36.9665 35.9583C37.3554 36.6111 37.8692 37.1389 38.5081 37.5417C39.1609 37.9306 39.8831 38.125 40.6748 38.125ZM55.1159 40.25C53.9076 40.25 52.8034 39.9583 51.8034 39.375C50.8034 38.7917 50.0048 38.0069 49.4076 37.0208C48.8243 36.0347 48.5326 34.9444 48.5326 33.75C48.5326 32.5417 48.8243 31.4514 49.4076 30.4792C50.0048 29.4931 50.8034 28.7083 51.8034 28.125C52.8034 27.5417 53.9076 27.25 55.1159 27.25C56.3382 27.25 57.4423 27.5417 58.4284 28.125C59.4284 28.7083 60.2201 29.4931 60.8034 30.4792C61.4007 31.4514 61.6993 32.5417 61.6993 33.75C61.6993 34.9444 61.4007 36.0347 60.8034 37.0208C60.2201 38.0069 59.4284 38.7917 58.4284 39.375C57.4423 39.9583 56.3382 40.25 55.1159 40.25ZM55.1159 38.125C55.9215 38.125 56.6507 37.9306 57.3034 37.5417C57.9562 37.1389 58.4771 36.6111 58.8659 35.9583C59.2548 35.2917 59.4493 34.5556 59.4493 33.75C59.4493 32.9444 59.2548 32.2153 58.8659 31.5625C58.4771 30.8958 57.9562 30.3681 57.3034 29.9792C56.6507 29.5764 55.9215 29.375 55.1159 29.375C54.3104 29.375 53.5812 29.5764 52.9284 29.9792C52.2757 30.3681 51.7548 30.8958 51.3659 31.5625C50.9771 32.2153 50.7826 32.9444 50.7826 33.75C50.7826 34.5556 50.9771 35.2917 51.3659 35.9583C51.7548 36.6111 52.2757 37.1389 52.9284 37.5417C53.5812 37.9306 54.3104 38.125 55.1159 38.125Z" fill="black"/>
<path d="M63.9178 40V27.5H66.0011V29.7917C66.4455 29.0556 67.0358 28.4722 67.7719 28.0417C68.508 27.5972 69.383 27.375 70.3969 27.375L70.9594 29.625C70.6955 29.5417 70.39 29.5 70.0428 29.5C68.8761 29.5 67.9386 29.875 67.2303 30.625C66.5219 31.3611 66.1678 32.4167 66.1678 33.7917V40H63.9178ZM72.3928 40V27.5H74.6428V40H72.3928ZM73.5178 25.25C73.1011 25.25 72.7469 25.1042 72.4553 24.8125C72.1636 24.5208 72.0178 24.1667 72.0178 23.75C72.0178 23.3194 72.1636 22.9653 72.4553 22.6875C72.7469 22.3958 73.1011 22.25 73.5178 22.25C73.9483 22.25 74.3025 22.3958 74.5803 22.6875C74.8719 22.9653 75.0178 23.3194 75.0178 23.75C75.0178 24.1667 74.8719 24.5208 74.5803 24.8125C74.3025 25.1042 73.9483 25.25 73.5178 25.25ZM83.0872 40.1667C81.9483 40.1667 80.9066 39.8819 79.9622 39.3125C79.0177 38.7292 78.2608 37.9514 77.6913 36.9792C77.1358 36.0069 76.858 34.9306 76.858 33.75C76.858 32.5694 77.1358 31.4931 77.6913 30.5208C78.2608 29.5486 79.0177 28.7778 79.9622 28.2083C80.9066 27.625 81.9483 27.3333 83.0872 27.3333C83.9483 27.3333 84.7538 27.4931 85.5038 27.8125C86.2677 28.1319 86.9275 28.5764 87.483 29.1458V27.5H89.5663V40H87.483V38.3542C86.9275 38.9097 86.2677 39.3542 85.5038 39.6875C84.7538 40.0069 83.9483 40.1667 83.0872 40.1667ZM83.3788 38.125C84.1705 38.125 84.8858 37.9306 85.5247 37.5417C86.1775 37.1389 86.6913 36.6111 87.0663 35.9583C87.4552 35.2917 87.6497 34.5556 87.6497 33.75C87.6497 32.9444 87.4552 32.2153 87.0663 31.5625C86.6913 30.8958 86.1775 30.3681 85.5247 29.9792C84.8858 29.5764 84.1705 29.375 83.3788 29.375C82.5872 29.375 81.865 29.5764 81.2122 29.9792C80.5733 30.3681 80.0594 30.8958 79.6705 31.5625C79.2955 32.2153 79.108 32.9444 79.108 33.75C79.108 34.5556 79.2955 35.2917 79.6705 35.9583C80.0594 36.6111 80.5733 37.1389 81.2122 37.5417C81.865 37.9306 82.5872 38.125 83.3788 38.125Z" fill="white"/>
<path d="M64.5871 25.729C64.8247 25.0044 64.7689 24.193 64.4318 23.4729C64.0948 22.7528 63.504 22.1828 62.7891 21.8879C62.7038 21.8528 62.617 21.8226 62.5301 21.7958C62.4674 21.2362 62.253 20.6966 61.9121 20.2401C61.5713 19.7836 61.118 19.4292 60.6054 19.2184C60.0928 19.0076 59.5421 18.9491 59.0178 19.0497C58.4935 19.1503 58.0174 19.406 57.6451 19.7867C57.5634 19.7442 57.4797 19.7042 57.3945 19.6692C56.7821 19.4175 56.1186 19.3843 55.513 19.5751C54.9073 19.7659 54.3956 20.1693 54.062 20.7189C53.7283 21.2686 53.5926 21.9318 53.677 22.5996C53.7615 23.2674 54.0612 23.9 54.5268 24.3935L53.7976 26.6087C53.7294 26.8157 53.7452 27.0476 53.8416 27.2534C53.9379 27.4592 54.1069 27.6221 54.3113 27.7061L60.4765 30.2418C60.6809 30.3258 60.904 30.3242 61.0967 30.2373C61.2894 30.1504 61.436 29.9852 61.5041 29.7782L62.2333 27.563C62.7672 27.5306 63.2716 27.3411 63.6882 27.0165C64.1047 26.692 64.4164 26.2456 64.5871 25.729ZM60.7335 29.4613L54.5682 26.9256L55.2199 24.946C55.3413 25.0173 55.4669 25.0798 55.5959 25.1328L60.9905 27.3515C61.1194 27.4045 61.2513 27.448 61.3851 27.4817L60.7335 29.4613ZM61.2474 26.571L60.5851 26.2986L61.2048 25.3316C61.2604 25.2413 61.2782 25.1296 61.2542 25.0206C61.2302 24.9116 61.1664 24.814 61.0765 24.7489C60.9867 24.6838 60.8779 24.6563 60.7738 24.6723C60.6696 24.6884 60.5783 24.7468 60.5196 24.8349L59.7904 25.9717L58.9355 25.6201L59.3209 24.4493C59.3549 24.3458 59.347 24.2299 59.2989 24.127C59.2507 24.024 59.1662 23.9426 59.064 23.9006C58.9618 23.8586 58.8503 23.8594 58.7539 23.9028C58.6576 23.9463 58.5843 24.0289 58.5502 24.1324L58.1648 25.3031L57.3099 24.9515L57.4138 23.5575C57.4189 23.5023 57.4132 23.4459 57.3971 23.3916C57.381 23.3372 57.3548 23.2861 57.3201 23.2411C57.2854 23.1961 57.2428 23.1582 57.1948 23.1296C57.1468 23.1009 57.0944 23.0821 57.0406 23.0743C56.9869 23.0664 56.9328 23.0697 56.8816 23.0839C56.8304 23.098 56.7831 23.1228 56.7425 23.1568C56.7018 23.1908 56.6687 23.2333 56.6449 23.2818C56.6211 23.3303 56.6072 23.3839 56.604 23.4394L56.5151 24.6247L55.8528 24.3523C55.3419 24.1421 54.9195 23.735 54.6786 23.2205C54.4378 22.7059 54.3982 22.1261 54.5686 21.6086C54.7389 21.0911 55.1053 20.6783 55.5871 20.4609C56.0688 20.2436 56.6266 20.2395 57.1375 20.4497L57.1655 20.4612C57.1043 20.5827 57.052 20.7093 57.0091 20.84C56.975 20.9435 56.9829 21.0594 57.0311 21.1623C57.0793 21.2652 57.1637 21.3467 57.2659 21.3887C57.3681 21.4307 57.4797 21.4299 57.576 21.3864C57.6724 21.343 57.7457 21.2604 57.7797 21.1569C57.9501 20.6394 58.3165 20.2266 58.7982 20.0092C59.28 19.7919 59.8378 19.7878 60.3487 19.998C60.8597 20.2082 61.2821 20.6153 61.5229 21.1298C61.7638 21.6444 61.8034 22.2242 61.633 22.7417C61.5989 22.8452 61.6069 22.9611 61.655 23.0641C61.7032 23.167 61.7877 23.2484 61.8899 23.2904C61.9921 23.3324 62.1036 23.3316 62.2 23.2882C62.2963 23.2447 62.3696 23.1621 62.4037 23.0586C62.4467 22.9281 62.4803 22.7938 62.5042 22.6569L62.5321 22.6684C63.0431 22.8785 63.4655 23.2857 63.7063 23.8002C63.9472 24.3147 63.9868 24.8945 63.8164 25.4121C63.6461 25.9296 63.2797 26.3424 62.7979 26.5597C62.3161 26.7771 61.7584 26.7811 61.2474 26.571Z" fill="black"/>
<rect x="54.778" y="26.2954" width="6.65649" height="0.966835" transform="rotate(19.9459 54.778 26.2954)" fill="#E96B35"/>
</svg>
