<svg width="13" height="18" viewBox="0 0 13 18" fill="none" xmlns="http://www.w3.org/2000/svg">
<path d="M0.599976 3.53331C0.599976 2.50664 0.599976 1.99331 0.799809 1.60098C0.975574 1.25603 1.25603 0.975574 1.60098 0.799809C1.99331 0.599976 2.50664 0.599976 3.53331 0.599976H8.66664C9.69331 0.599976 10.2066 0.599976 10.599 0.799809C10.9439 0.975574 11.2244 1.25603 11.4001 1.60098C11.6 1.99331 11.6 2.50664 11.6 3.53331V15.7296C11.6 16.1751 11.6 16.3978 11.5074 16.5197C11.4674 16.5727 11.4163 16.6164 11.3578 16.6478C11.2992 16.6791 11.2345 16.6974 11.1682 16.7012C11.0151 16.7104 10.83 16.5866 10.4596 16.3401L6.09998 13.4333L1.74031 16.3391C1.36998 16.5866 1.18481 16.7104 1.03081 16.7012C0.964658 16.6972 0.900163 16.6789 0.841767 16.6476C0.783372 16.6163 0.732466 16.5726 0.692559 16.5197C0.599975 16.3978 0.599976 16.1751 0.599976 15.7296V3.53331Z" stroke="#797979" stroke-width="1.2" stroke-linecap="round" stroke-linejoin="round"/>
</svg>
